<svg width="234" height="38" viewBox="0 0 234 38" fill="none" xmlns="http://www.w3.org/2000/svg">
<path d="M49.37 30.33C45.97 30.33 43.37 29.32 41.57 27.3C39.77 25.26 38.87 22.48 38.87 18.96C38.87 16.64 39.34 14.62 40.28 12.9C41.24 11.16 42.55 9.82 44.21 8.88C45.87 7.94 47.75 7.47 49.85 7.47C50.73 7.47 51.58 7.53 52.4 7.65C53.22 7.75 54.19 7.89 55.31 8.07C56.15 8.21 56.61 8.28 56.69 8.28L56.36 14.46H53.6L52.67 10.17C52.45 9.95 52.07 9.77 51.53 9.63C50.99 9.49 50.3 9.42 49.46 9.42C47.76 9.42 46.39 10.21 45.35 11.79C44.33 13.35 43.82 15.62 43.82 18.6C43.82 21.48 44.31 23.83 45.29 25.65C46.27 27.47 47.7 28.38 49.58 28.38C50.48 28.38 51.17 28.3 51.65 28.14C52.15 27.96 52.57 27.71 52.91 27.39L54.23 24.3L56.75 24.54L56.15 29.19C55.73 29.23 55.31 29.31 54.89 29.43C54.49 29.53 54.24 29.59 54.14 29.61C53.34 29.83 52.59 30 51.89 30.12C51.21 30.26 50.37 30.33 49.37 30.33ZM59.0961 21.69C59.0961 19.81 59.4661 18.21 60.2061 16.89C60.9661 15.57 61.9761 14.58 63.2361 13.92C64.4961 13.24 65.8661 12.9 67.3461 12.9C69.8661 12.9 71.8061 13.68 73.1661 15.24C74.5461 16.78 75.2361 18.88 75.2361 21.54C75.2361 23.44 74.8561 25.06 74.0961 26.4C73.3561 27.72 72.3561 28.71 71.0961 29.37C69.8561 30.01 68.4861 30.33 66.9861 30.33C64.4861 30.33 62.5461 29.56 61.1661 28.02C59.7861 26.46 59.0961 24.35 59.0961 21.69ZM67.2261 28.38C69.4861 28.38 70.6161 26.2 70.6161 21.84C70.6161 19.56 70.3461 17.83 69.8061 16.65C69.2661 15.45 68.3861 14.85 67.1661 14.85C64.8461 14.85 63.6861 17.03 63.6861 21.39C63.6861 23.67 63.9661 25.41 64.5261 26.61C65.1061 27.79 66.0061 28.38 67.2261 28.38ZM76.4333 13.32H84.3533V15.06L82.3733 15.45L85.1033 23.61L86.0633 26.79L86.8733 23.7L89.5433 15.45L87.6533 15.06V13.32H94.2533V15.06L92.6933 15.45L87.1133 30.24H83.6333L77.6633 15.45L76.4333 15.06V13.32ZM98.672 10.59C97.952 10.59 97.382 10.38 96.962 9.96C96.542 9.54 96.332 9 96.332 8.34C96.332 7.58 96.572 6.95 97.052 6.45C97.532 5.95 98.172 5.7 98.972 5.7C99.772 5.7 100.382 5.92 100.802 6.36C101.222 6.78 101.432 7.31 101.432 7.95C101.432 8.75 101.192 9.39 100.712 9.87C100.232 10.35 99.562 10.59 98.702 10.59H98.672ZM97.082 16.17L94.952 15.6V13.59L100.442 12.93H100.502L101.342 13.53V27.96L103.352 28.2V30H94.982V28.2L97.082 27.93V16.17ZM111.772 30.33C110.532 30.33 109.422 30.04 108.442 29.46C107.462 28.86 106.682 27.94 106.102 26.7C105.522 25.46 105.232 23.91 105.232 22.05C105.232 20.37 105.572 18.84 106.252 17.46C106.952 16.06 107.972 14.95 109.312 14.13C110.652 13.31 112.262 12.9 114.142 12.9C114.902 12.9 115.622 12.98 116.302 13.14V8.07L113.362 7.65V6L119.542 5.4H119.632L120.472 6.03V28.17H122.092V29.88C120.652 30.18 119.462 30.33 118.522 30.33C117.882 30.33 117.422 30.22 117.142 30C116.882 29.8 116.752 29.39 116.752 28.77V27.93C116.232 28.63 115.522 29.21 114.622 29.67C113.722 30.11 112.772 30.33 111.772 30.33ZM113.332 27.84C113.992 27.84 114.572 27.71 115.072 27.45C115.592 27.17 116.002 26.84 116.302 26.46V15.54C116.162 15.34 115.862 15.17 115.402 15.03C114.962 14.89 114.482 14.82 113.962 14.82C112.682 14.82 111.652 15.38 110.872 16.5C110.112 17.6 109.732 19.37 109.732 21.81C109.732 23.85 110.062 25.37 110.722 26.37C111.382 27.35 112.252 27.84 113.332 27.84Z" fill="white"/>
<path d="M134.851 9.96L131.611 9.57V7.71H140.971L144.541 20.61L145.381 24.12L146.101 20.61L149.641 7.71H158.911V9.57L155.641 9.96L158.041 27.87L160.471 28.2V30H150.901V28.2L153.541 27.9L152.221 14.76L151.651 9.27L150.541 13.89L146.191 29.07H143.011L138.571 14.67L137.041 9.27L136.591 14.76L135.451 27.9L138.481 28.2V30H130.141V28.2L132.661 27.9L134.851 9.96ZM161.899 21.69C161.899 19.81 162.269 18.21 163.009 16.89C163.769 15.57 164.779 14.58 166.039 13.92C167.299 13.24 168.669 12.9 170.149 12.9C172.669 12.9 174.609 13.68 175.969 15.24C177.349 16.78 178.039 18.88 178.039 21.54C178.039 23.44 177.659 25.06 176.899 26.4C176.159 27.72 175.159 28.71 173.899 29.37C172.659 30.01 171.289 30.33 169.789 30.33C167.289 30.33 165.349 29.56 163.969 28.02C162.589 26.46 161.899 24.35 161.899 21.69ZM170.029 28.38C172.289 28.38 173.419 26.2 173.419 21.84C173.419 19.56 173.149 17.83 172.609 16.65C172.069 15.45 171.189 14.85 169.969 14.85C167.649 14.85 166.489 17.03 166.489 21.39C166.489 23.67 166.769 25.41 167.329 26.61C167.909 27.79 168.809 28.38 170.029 28.38ZM182.446 16.17L180.526 15.63V13.56L185.506 12.93H185.596L186.346 13.53V14.7L186.316 15.42C187.016 14.76 187.926 14.19 189.046 13.71C190.166 13.23 191.296 12.99 192.436 12.99C193.656 12.99 194.606 13.22 195.286 13.68C195.986 14.12 196.486 14.82 196.786 15.78C197.086 16.74 197.236 18.04 197.236 19.68V27.96L199.066 28.2V30H191.326V28.2L192.946 27.96V19.68C192.946 18.64 192.876 17.83 192.736 17.25C192.596 16.65 192.336 16.22 191.956 15.96C191.596 15.68 191.076 15.54 190.396 15.54C189.256 15.54 188.036 16.03 186.736 17.01V27.93L188.536 28.2V30H180.706V28.2L182.446 27.93V16.17ZM208.746 30.33C206.106 30.33 204.136 29.56 202.836 28.02C201.556 26.46 200.916 24.34 200.916 21.66C200.916 19.86 201.246 18.3 201.906 16.98C202.586 15.66 203.536 14.65 204.756 13.95C205.976 13.25 207.386 12.9 208.986 12.9C210.986 12.9 212.526 13.43 213.606 14.49C214.686 15.53 215.246 17.02 215.286 18.96C215.286 20.28 215.206 21.26 215.046 21.9H205.296C205.376 23.72 205.806 25.14 206.586 26.16C207.366 27.16 208.476 27.66 209.916 27.66C210.696 27.66 211.496 27.53 212.316 27.27C213.156 27.01 213.816 26.7 214.296 26.34L215.046 27.99C214.506 28.57 213.626 29.11 212.406 29.61C211.206 30.09 209.986 30.33 208.746 30.33ZM211.086 20.1C211.126 19.54 211.146 19.11 211.146 18.81C211.146 16.15 210.256 14.82 208.476 14.82C207.496 14.82 206.736 15.21 206.196 15.99C205.656 16.77 205.356 18.14 205.296 20.1H211.086ZM220.35 37.47C219.99 37.47 219.6 37.44 219.18 37.38C218.78 37.32 218.49 37.25 218.31 37.17V33.96C218.45 34.04 218.73 34.12 219.15 34.2C219.57 34.28 219.95 34.32 220.29 34.32C221.29 34.32 222.11 33.99 222.75 33.33C223.41 32.67 224.02 31.56 224.58 30H222.96L217.32 15.45L215.97 15.06V13.32H224.22V15.06L222.03 15.42L224.7 23.73L225.78 27.27L226.71 23.73L229.17 15.42L227.28 15.06V13.32H233.79V15.06L232.32 15.42C231.22 18.78 230.13 22.02 229.05 25.14C227.97 28.26 227.34 30.01 227.16 30.39C226.52 32.07 225.91 33.41 225.33 34.41C224.75 35.41 224.06 36.17 223.26 36.69C222.46 37.21 221.49 37.47 220.35 37.47Z" fill="#F5C30F"/>
<mask id="mask0" mask-type="alpha" maskUnits="userSpaceOnUse" x="0" y="4" width="30" height="30">
<circle cx="15" cy="19" r="15" fill="#2A2C42"/>
</mask>
<g mask="url(#mask0)">
<rect x="33.6482" y="1" width="34" height="49" transform="rotate(45 33.6482 1)" fill="#010101"/>
<rect x="9.64819" y="-23" width="34" height="49" transform="rotate(45 9.64819 -23)" fill="#F5C30F"/>
</g>
</svg>
